# xmcd
#
# Track frame offsets: 
#        150
#        15719
#        26548
#        38381
#        57131
#        72595
#        83806
#        100914
#        111665
#        117268
#        127252
#        141210
#        147233
#        183870
#        199942
#        208417
#        218490
#        221835
#        230122
#        252249
#        264928
#        271613
#        278326
#        287430
#
# Disc length: 4014 seconds
#
# Revision: 0
# Processed by: cddbd v1.5.2PL0 Copyright (c) Steve Scherf et al.
# Submitted via: ExactAudioCopy v0.99pb4
#
DISCID=6d0fac18
DTITLE=Большой Детский Хор - Русская классика и произведения современн
DTITLE=ых композиторов
DYEAR=2003
DGENRE=Retro
TTITLE0=Жаворонок
TTITLE1=Горные вершины
TTITLE2=Утренняя молитва
TTITLE3=Соловушка)
TTITLE4=Дуэт Лизы и Полины из оперы Пиковая Дама
TTITLE5=Без поры да без времени
TTITLE6=Рассвет
TTITLE7=Старинная французкая песенка
TTITLE8=Неаполитанская песенка
TTITLE9=Сосна
TTITLE10=Ангел
TTITLE11=Итальянская полька
TTITLE12=Фантазия на темы русских композиторов
TTITLE13=Зайчик
TTITLE14=Уводили тебя на рассвете
TTITLE15=Ночь
TTITLE16=Показать бы тебе, насмешнице
TTITLE17=Семнадцать месяцев кричу
TTITLE18=Красивые листья падают
TTITLE19=По ночам у меня под подушкой
TTITLE20=Идут куда-то облака
TTITLE21=Земля кружится
TTITLE22=Ау!
TTITLE23=По буквари
EXTD=
EXTT0=
EXTT1=
EXTT2=
EXTT3=
EXTT4=
EXTT5=
EXTT6=
EXTT7=
EXTT8=
EXTT9=
EXTT10=
EXTT11=
EXTT12=
EXTT13=
EXTT14=
EXTT15=
EXTT16=
EXTT17=
EXTT18=
EXTT19=
EXTT20=
EXTT21=
EXTT22=
EXTT23=
PLAYORDER=
